
<svg width="48" height="48" viewBox="0 0 48 48" fill="none" xmlns="http://www.w3.org/2000/svg">
    <g clip-path="url(#clip0_1391_3864)">
    <path d="M24 41.6143C33.7281 41.6143 41.6143 33.7281 41.6143 24C41.6143 14.2719 33.7281 6.38574 24 6.38574C14.2719 6.38574 6.38574 14.2719 6.38574 24C6.38574 33.7281 14.2719 41.6143 24 41.6143Z" fill="#FFB400"/>
    <path d="M29.7806 10.1094L23.1746 39.0199C23.4471 39.0354 23.7248 39.0431 24 39.0431C32.3083 39.0431 39.0428 32.3085 39.0428 24.0002C39.0428 17.7414 35.2191 12.3748 29.7806 10.1094Z" fill="#F89300"/>
    <path d="M24.2263 41.6092C24.1517 41.6092 24.0772 41.6143 24 41.6143C14.2723 41.6143 6.38574 33.7277 6.38574 24C6.38574 14.2723 14.2723 6.38574 24 6.38574C33.7277 6.38574 41.6143 14.2723 41.6143 24C41.6143 24.0746 41.6092 24.1492 41.6092 24.2263C41.4883 14.8509 33.8537 7.28574 24.45 7.28574C15.0463 7.28574 7.28574 14.9692 7.28574 24.45C7.28574 33.9309 14.8509 41.4883 24.2263 41.6092Z" fill="white"/>
    <path d="M23.7737 6.39089C23.8483 6.39089 23.9229 6.38574 24 6.38574C33.7277 6.38574 41.6143 14.2723 41.6143 24C41.6143 33.7277 33.7277 41.6143 24 41.6143C14.2723 41.6143 6.38574 33.7277 6.38574 24C6.38574 23.9255 6.39089 23.8509 6.39089 23.7737C6.51174 33.1492 14.1463 40.7143 23.55 40.7143C33.0283 40.7143 40.7143 33.0309 40.7143 23.55C40.7143 14.1463 33.1492 6.51174 23.7737 6.39089Z" fill="#FB6100"/>
    <path d="M24 6.77143C33.4989 6.77143 41.2286 14.5011 41.2286 24C41.2286 33.4989 33.4989 41.2286 24 41.2286C14.5011 41.2286 6.77143 33.4989 6.77143 24C6.77143 14.5011 14.5011 6.77143 24 6.77143ZM24 6C14.0589 6 6 14.0589 6 24C6 33.9411 14.0589 42 24 42C33.9411 42 42 33.9411 42 24C42 14.0589 33.9411 6 24 6Z" fill="#0E0E0E"/>
    <path d="M9.72858 25.0285C9.72858 16.5787 16.5789 9.72846 25.0286 9.72846C28.0166 9.72846 30.8014 10.5873 33.1543 12.0685C30.6189 10.1193 27.4457 8.95703 24 8.95703C15.6917 8.95703 8.95715 15.6916 8.95715 23.9999C8.95715 27.4456 10.1194 30.6187 12.0686 33.1567C10.5874 30.8013 9.72858 28.0165 9.72858 25.0285Z" fill="white"/>
    <path d="M39.6856 24.4866C39.6856 32.8798 32.8816 39.6864 24.4859 39.6864C18.9111 39.6864 14.0382 36.6829 11.3948 32.2061C14.0793 36.3204 18.7208 39.0435 23.9999 39.0435C32.3082 39.0435 39.0428 32.3089 39.0428 24.0007C39.0428 18.7215 36.3196 14.0801 32.2053 11.3955C36.6822 14.0415 39.6856 18.9118 39.6856 24.4866Z" fill="white"/>
    <path d="M24 9.34272C32.082 9.34272 38.6571 15.9179 38.6571 23.9999C38.6571 32.0819 32.082 38.657 24 38.657C15.918 38.657 9.34284 32.0819 9.34284 23.9999C9.34284 15.9179 15.918 9.34272 24 9.34272ZM24 8.57129C15.4783 8.57129 8.57141 15.4781 8.57141 23.9999C8.57141 32.5216 15.4783 39.4284 24 39.4284C32.5217 39.4284 39.4286 32.5216 39.4286 23.9999C39.4286 15.4781 32.5217 8.57129 24 8.57129Z" fill="#0E0E0E"/>
    <path d="M26.9159 13.8608C27.4508 12.7294 28.5565 11.9682 29.8011 11.8756C30.7139 11.8088 31.6011 12.0994 32.3005 12.6908C32.4625 12.8296 32.4831 13.0714 32.3442 13.2334C32.2054 13.3954 31.9637 13.4159 31.8017 13.2771C31.2565 12.8142 30.5674 12.5905 29.8577 12.6419C28.8882 12.7139 28.0294 13.3054 27.6154 14.1848C27.5254 14.3776 27.2939 14.4599 27.1011 14.3699C26.9082 14.2774 26.8285 14.0485 26.9185 13.8556L26.9159 13.8608Z" fill="#0E0E0E"/>
    <path d="M20.9014 14.3723C20.7086 14.4649 20.4797 14.38 20.3871 14.1897C19.9706 13.3077 19.1117 12.7163 18.1449 12.6469C17.4351 12.5954 16.7434 12.8192 16.2009 13.282C16.0389 13.4183 15.7946 13.4003 15.6583 13.2383C15.5194 13.0763 15.54 12.832 15.702 12.6957C16.4014 12.1017 17.2886 11.8137 18.2014 11.8806C19.446 11.9732 20.5517 12.7317 21.0866 13.8657C21.1766 14.0586 21.0943 14.2874 20.904 14.3774L20.9014 14.3723Z" fill="#0E0E0E"/>
    <path d="M30.7397 31.6577C33.3244 31.6577 35.4197 27.7733 35.4197 22.9817C35.4197 18.19 33.3244 14.3057 30.7397 14.3057C28.155 14.3057 26.0597 18.19 26.0597 22.9817C26.0597 27.7733 28.155 31.6577 30.7397 31.6577Z" fill="white"/>
    <path d="M30.9454 24.9492C30.8297 27.2558 29.7831 29.0635 28.5077 29.0635C27.1551 29.0635 26.0597 27.032 26.0597 24.5249C26.0597 22.0178 27.1551 19.9863 28.5077 19.9863C29.598 19.9863 30.5237 21.3106 30.84 23.1389C30.5828 22.8638 30.2177 22.694 29.8114 22.694C29.0297 22.694 28.3971 23.3266 28.3971 24.1083C28.3971 24.89 29.0297 25.5226 29.8114 25.5226C30.2768 25.5226 30.6883 25.2963 30.9454 24.9492Z" fill="#0E0E0E"/>
    <path d="M30.7397 31.6577C33.3244 31.6577 35.4197 27.7733 35.4197 22.9817C35.4197 18.19 33.3244 14.3057 30.7397 14.3057C28.155 14.3057 26.0597 18.19 26.0597 22.9817C26.0597 27.7733 28.155 31.6577 30.7397 31.6577Z" stroke="#0E0E0E" stroke-width="0.771429" stroke-linejoin="round"/>
    <path d="M17.2654 31.6577C19.8501 31.6577 21.9454 27.7733 21.9454 22.9817C21.9454 18.19 19.8501 14.3057 17.2654 14.3057C14.6808 14.3057 12.5854 18.19 12.5854 22.9817C12.5854 27.7733 14.6808 31.6577 17.2654 31.6577Z" fill="white"/>
    <path d="M18.1963 25.5226C18.978 25.5226 19.6105 24.89 19.6105 24.1083C19.6105 23.3266 18.978 22.694 18.1963 22.694C17.79 22.694 17.4248 22.8663 17.1677 23.1389C17.484 21.3106 18.4071 19.9863 19.5 19.9863C20.8525 19.9863 21.948 22.0178 21.948 24.5249C21.948 27.032 20.8525 29.0635 19.5 29.0635C18.2245 29.0635 17.178 27.2558 17.0623 24.9492C17.3194 25.2963 17.7308 25.5226 18.1963 25.5226Z" fill="#0E0E0E"/>
    <path d="M17.2654 31.6577C19.8501 31.6577 21.9454 27.7733 21.9454 22.9817C21.9454 18.19 19.8501 14.3057 17.2654 14.3057C14.6808 14.3057 12.5854 18.19 12.5854 22.9817C12.5854 27.7733 14.6808 31.6577 17.2654 31.6577Z" stroke="#0E0E0E" stroke-width="0.771429" stroke-linejoin="round"/>
    <path d="M24.0001 37.0553C22.9921 37.0553 21.9352 37.0502 20.5672 36.793C19.5592 36.6027 18.8881 36.4767 18.0755 36.0447C17.0546 35.497 16.4323 34.795 15.9695 34.2627C14.8278 32.9487 15.1621 32.6144 14.0846 31.5884C13.7786 31.2979 13.3183 30.9122 12.8683 30.2102C12.3952 29.4747 12.4029 29.1276 12.4441 28.9347C12.5572 28.3767 13.0123 28.0964 13.1332 28.0244C13.7349 27.6567 14.4086 27.8033 14.8355 27.9036C15.7123 28.1093 15.8589 28.4564 16.5969 28.7753C18.0961 29.4207 19.6826 28.927 19.9783 28.837C20.9786 28.5259 21.0815 28.117 22.2669 27.7827C22.9689 27.5847 23.5809 27.5436 23.9975 27.541C24.4141 27.5436 25.0261 27.5847 25.7281 27.7827C26.9135 28.117 27.0163 28.5259 28.0166 28.837C28.3123 28.9296 29.8989 29.4207 31.3981 28.7753C32.1386 28.4564 32.2826 28.1093 33.1595 27.9036C33.5863 27.8033 34.2601 27.6567 34.8618 28.0244C34.9826 28.099 35.4378 28.3767 35.5509 28.9347C35.5895 29.1276 35.5972 29.4747 35.1266 30.2102C34.6766 30.9096 34.2163 31.2953 33.9103 31.5884C32.8355 32.6144 33.1698 32.9487 32.0255 34.2627C31.5626 34.7976 30.9403 35.4996 29.9195 36.0447C29.1095 36.4793 28.4358 36.6053 27.4278 36.793C26.0598 37.0502 25.0029 37.0553 23.9949 37.0553H24.0001ZM22.5086 30.7193C20.6418 30.8042 19.6389 31.1076 18.8649 31.1847C17.8261 31.2876 16.2883 31.0664 14.2312 29.5184C14.6581 29.8682 15.2675 30.421 15.8769 31.1976C16.7461 32.3059 16.7898 32.815 17.5175 33.5633C18.3198 34.3887 19.1966 34.7204 20.0349 35.0393C21.5752 35.6256 26.4352 35.6256 27.9755 35.0393C28.8138 34.7204 29.6881 34.3862 30.4929 33.5633C31.2206 32.815 31.2643 32.3059 32.1335 31.1976C32.7429 30.421 33.3523 29.8682 33.7792 29.5184C31.7195 31.0664 30.1843 31.2876 29.1455 31.1847C28.3715 31.1076 27.3661 30.8042 25.5018 30.7193C24.8692 30.691 23.1438 30.691 22.5112 30.7193H22.5086Z" fill="#FDB601"/>
    <path d="M22.5086 30.7194C20.6418 30.8043 19.6389 31.1077 18.8649 31.1848C17.8261 31.2877 16.2883 31.0666 14.2312 29.5186C14.6581 29.8683 15.2675 30.4211 15.8769 31.1977C16.7461 32.306 16.7898 32.8151 17.5175 33.5634C18.3198 34.3888 19.1966 34.7206 20.0349 35.0394C21.5752 35.6257 26.4352 35.6257 27.9755 35.0394C28.8138 34.7206 29.6881 34.3863 30.4929 33.5634C31.2206 32.8151 31.2643 32.306 32.1335 31.1977C32.7429 30.4211 33.3523 29.8683 33.7792 29.5186C31.7195 31.0666 30.1843 31.2877 29.1455 31.1848C28.3715 31.1077 27.3661 30.8043 25.5018 30.7194C24.8692 30.6911 23.1438 30.6911 22.5112 30.7194H22.5086Z" fill="#0E0E0E"/>
    <path d="M35.448 30.4804L34.7769 30.1024C34.7898 30.0793 35.088 29.5393 34.8515 29.0919C34.7255 28.8501 34.4992 28.737 34.4015 28.6881C34.1083 28.539 33.684 28.5261 33.1749 28.647C32.7146 28.7576 32.4703 28.9119 32.1875 29.0919C32.0178 29.1999 31.8249 29.3207 31.5806 29.4338C30.5675 29.907 29.2689 29.943 27.9292 29.5393C27.4046 29.3799 27.1115 29.205 26.8286 29.0327C26.52 28.8476 26.2295 28.6701 25.5763 28.5081C25.0775 28.3847 24.5323 28.3178 23.9949 28.3127C23.5449 28.3076 23.0358 28.3024 22.4495 28.5004C22.2129 28.5801 21.9532 28.6959 21.8683 28.7319C21.4543 28.917 21.1612 29.0867 21.066 29.1433C20.5749 29.4261 18.438 30.2876 16.5506 29.5444C16.2215 29.4158 15.9798 29.2693 15.7483 29.1279C15.4166 28.9273 15.1029 28.737 14.5218 28.6007C14.0923 28.5004 13.8352 28.5056 13.6063 28.6213C13.308 28.773 13.1769 29.0533 13.1435 29.1381C12.9738 29.5624 13.1666 29.9533 13.2052 30.0279L12.5263 30.3956C12.4286 30.2181 12.138 29.5778 12.426 28.8553C12.5006 28.6676 12.7295 28.2021 13.2566 27.9347C13.7606 27.6801 14.2672 27.7496 14.6966 27.8524C15.396 28.017 15.7946 28.2587 16.1443 28.4696C16.3603 28.6007 16.5635 28.7216 16.8309 28.8296C18.4123 29.4519 20.2792 28.7087 20.6546 28.4927C20.778 28.4207 21.0995 28.233 21.5495 28.0324C21.6446 27.9887 21.9275 27.8627 22.2 27.7727C22.9072 27.5361 23.5372 27.5413 23.9975 27.5464C24.594 27.5516 25.2035 27.6287 25.7589 27.765C26.5252 27.9553 26.8955 28.179 27.2246 28.377C27.4869 28.5364 27.7158 28.6753 28.1478 28.8039C29.3075 29.1536 30.408 29.1278 31.2515 28.737C31.452 28.6444 31.6063 28.5467 31.7709 28.4413C32.082 28.2433 32.406 28.0401 32.9898 27.8987C33.6789 27.7316 34.2858 27.7676 34.746 28.0016C34.8952 28.0761 35.286 28.2767 35.5278 28.7344C35.9418 29.5213 35.5303 30.3313 35.4429 30.4856L35.448 30.4804Z" fill="white"/>
    <path d="M24 37.4406C23.028 37.4406 21.9274 37.4406 20.4951 37.1732C19.4845 36.9829 18.7543 36.8466 17.8928 36.3838C16.7897 35.7923 16.1185 35.0235 15.6763 34.5143C15.0977 33.8483 14.8765 33.4189 14.6811 33.0383C14.4857 32.6578 14.3288 32.3543 13.8171 31.8683L13.6911 31.7501C13.3825 31.4621 12.9583 31.0686 12.5443 30.4206C12.0094 29.5875 12.0068 29.1478 12.066 28.8598C12.1328 28.5306 12.336 28.0601 12.9325 27.6949C13.6808 27.2372 14.4883 27.4249 14.9228 27.5278C15.5143 27.6666 15.8228 27.8698 16.1185 28.0652C16.3063 28.1886 16.4837 28.3043 16.7485 28.4201C17.9391 28.9318 19.212 28.6695 19.8651 28.4663C20.2868 28.3352 20.5208 28.1912 20.7934 28.0241C21.1148 27.8261 21.48 27.6023 22.164 27.4095C22.7528 27.2423 23.37 27.1575 23.9974 27.1523C24.63 27.1575 25.2471 27.2423 25.836 27.4095C26.52 27.6023 26.8825 27.8261 27.204 28.0241C27.4765 28.1912 27.7105 28.3352 28.1322 28.4663C28.7854 28.6695 30.0583 28.9318 31.2488 28.4201C31.5163 28.3043 31.6911 28.1886 31.8788 28.0652C32.1771 27.8698 32.4831 27.6666 33.0745 27.5278C33.5091 27.4275 34.3165 27.2372 35.0648 27.6975C35.6588 28.0626 35.8645 28.5306 35.9314 28.8623C35.9905 29.1503 35.988 29.5901 35.4531 30.4232C35.0365 31.0712 34.6148 31.4646 34.3062 31.7526L34.1802 31.8709C33.6685 32.3595 33.5143 32.6603 33.3163 33.0409C33.1208 33.4215 32.8997 33.8509 32.3211 34.5169C31.8788 35.0261 31.2102 35.7949 30.1045 36.3863C29.2431 36.8492 28.5128 36.9855 27.5048 37.1732C26.07 37.4432 24.9694 37.4432 23.9974 37.4432L24 37.4406ZM14.0305 28.1732C13.7991 28.1732 13.5548 28.2169 13.3363 28.3532C13.0483 28.5281 12.876 28.7518 12.8245 29.0115C12.7834 29.2198 12.9068 29.5541 13.1974 30.0041C13.5625 30.5723 13.9277 30.9118 14.2234 31.1869L14.3545 31.3103C14.9614 31.8889 15.1594 32.2772 15.3703 32.6861C15.5554 33.0435 15.7457 33.4138 16.2625 34.0103C16.692 34.5041 17.2808 35.1829 18.2605 35.7049C19.0191 36.1112 19.662 36.2321 20.6391 36.4146C22.002 36.6718 23.0665 36.6718 24.0051 36.6718C24.9437 36.6718 26.0057 36.6718 27.366 36.4172C28.3431 36.2346 28.9885 36.1112 29.7471 35.7075C30.7268 35.1829 31.3157 34.5066 31.7451 34.0129C32.262 33.4163 32.4522 33.0486 32.6374 32.6886C32.8482 32.2772 33.0488 31.8889 33.6531 31.3129L33.7843 31.1895C34.0774 30.9143 34.4451 30.5749 34.8102 30.0066C35.0982 29.5566 35.2242 29.2249 35.1831 29.0141C35.1317 28.7543 34.9568 28.5306 34.6714 28.3558C34.1931 28.0626 33.6094 28.1989 33.2597 28.2812C32.802 28.3892 32.586 28.5306 32.3134 28.7106C32.1154 28.8418 31.8917 28.9883 31.5625 29.1298C30.1431 29.7392 28.6671 29.4383 27.9137 29.2043C27.3994 29.0449 27.0985 28.8598 26.8105 28.6823C26.5045 28.4946 26.2165 28.3172 25.6354 28.1552C25.1108 28.0086 24.5631 27.9315 24.0051 27.9263C23.4522 27.9315 22.9045 28.0061 22.38 28.1552C21.7988 28.3198 21.5108 28.4972 21.2048 28.6849C20.9143 28.8623 20.616 29.0475 20.1017 29.2069C19.3483 29.4409 17.8723 29.7418 16.4528 29.1323C16.1237 28.9909 15.9 28.8443 15.702 28.7132C15.4294 28.5332 15.2134 28.3892 14.7557 28.2838C14.568 28.2401 14.3108 28.1783 14.0383 28.1783L14.0305 28.1732Z" fill="#0E0E0E"/>
    <path d="M24.3857 31.6113V33.023C24.3857 33.2365 24.2134 33.4088 24 33.4088C23.7866 33.4088 23.6143 33.2365 23.6143 33.023V31.6113C21.4543 31.7348 19.6234 32.8868 18.7826 34.5016C19.1992 34.7228 19.6209 34.8822 20.0323 35.039C21.5726 35.6253 26.4326 35.6253 27.9729 35.039C28.3817 34.8822 28.8009 34.7228 29.2175 34.5042C28.3792 32.8893 26.5483 31.7348 24.3857 31.6113Z" fill="#FC8859"/>
    <path d="M21.7551 32.6502C22.452 32.6502 23.0974 32.7968 23.6322 33.1336C23.622 33.1002 23.6142 33.0642 23.6142 33.0256V31.6139C21.7834 31.7193 20.1917 32.5653 19.2351 33.8022C19.8471 33.0976 20.7471 32.6528 21.7551 32.6528V32.6502ZM26.25 32.6502C27.2348 32.6502 28.1168 33.0796 28.7288 33.7559C27.7697 32.5422 26.196 31.7142 24.3857 31.6113V33.023C24.3857 33.0616 24.378 33.1002 24.3677 33.1362C24.9051 32.7968 25.5505 32.6476 26.2525 32.6476L26.25 32.6502Z" fill="#B74C2E"/>
    <path d="M19.8137 30.6913C20.3537 30.375 21.0763 29.6858 22.0663 29.4518C22.7863 29.2821 23.4883 29.1998 24.0026 29.1973C24.5169 29.1998 25.1031 29.2821 25.8257 29.4518C26.8157 29.6858 27.654 30.375 28.194 30.6913C26.7977 30.6116 25.4014 30.0176 24.0026 29.9378C22.6063 30.0176 21.21 30.6116 19.8163 30.6913H19.8137Z" fill="white"/>
    <path d="M19.8137 30.6908C20.3537 30.3745 21.1329 29.9991 22.1229 29.7677C22.8429 29.5979 23.4857 29.5465 24 29.5439C24.5143 29.5465 25.1597 29.5979 25.8797 29.7677C26.8697 30.0017 27.6489 30.3771 28.1889 30.6908C26.7926 30.6111 25.3963 30.5314 23.9974 30.4517C22.6012 30.5314 21.2049 30.6111 19.8112 30.6908H19.8137Z" fill="#D3512E"/>
    <path d="M24.0025 35.8596C22.3517 35.8596 20.7008 35.7054 19.896 35.3994C19.0551 35.0779 18.1037 34.7154 17.2397 33.8308C16.8179 33.3988 16.6019 33.0285 16.3731 32.6351C16.1802 32.3034 15.9617 31.9305 15.5708 31.4342C15.1054 30.8402 14.5705 30.2951 13.9842 29.8142C13.8222 29.6805 13.7965 29.4439 13.9251 29.2768C14.0537 29.1122 14.2928 29.0814 14.46 29.2074C16.0362 30.3928 17.5045 30.9276 18.8262 30.7991C19.0705 30.7759 19.3482 30.7245 19.6722 30.6679C20.3254 30.5522 21.2228 30.3902 22.4905 30.3336C23.1411 30.3028 24.8665 30.3028 25.5171 30.3336C26.7848 30.3928 27.6822 30.5522 28.3354 30.6679C28.6594 30.7245 28.9371 30.7759 29.1814 30.7991C30.5031 30.9302 31.9714 30.3928 33.5477 29.2074C33.7148 29.0814 33.9539 29.1122 34.0825 29.2768C34.2111 29.4414 34.1854 29.6805 34.0234 29.8142C33.4345 30.2951 32.9022 30.8402 32.4368 31.4342C32.0485 31.9305 31.83 32.3059 31.6345 32.6351C31.4057 33.0285 31.1897 33.3988 30.7679 33.8308C29.9065 34.7179 28.9525 35.0805 28.1117 35.3994C27.3042 35.7054 25.6534 35.8596 24.0025 35.8596ZM16.3397 31.1694C16.6611 31.6014 16.8591 31.9408 17.0365 32.2442C17.2577 32.6248 17.4351 32.9256 17.7899 33.2908C18.5331 34.0545 19.3637 34.3708 20.1659 34.6768C21.6342 35.2348 26.3657 35.2374 27.834 34.6768C28.6362 34.3708 29.4668 34.0545 30.2099 33.2908C30.5648 32.9256 30.7422 32.6248 30.9634 32.2442C31.1408 31.9408 31.3388 31.6014 31.6602 31.1694C30.7731 31.5139 29.9194 31.6451 29.0991 31.5654C28.8265 31.5396 28.5334 31.4856 28.1939 31.4265C27.5254 31.3082 26.6922 31.1591 25.4759 31.1025C24.8537 31.0742 23.1411 31.0742 22.5214 31.1025C21.3051 31.1591 20.472 31.3082 19.8034 31.4265C19.464 31.4882 19.1708 31.5396 18.8982 31.5654C18.0805 31.6451 17.2242 31.5139 16.3371 31.1694H16.3397Z" fill="#0E0E0E"/>
    </g>
    <path d="M43 12.24C43 12.0563 42.2746 11.8894 41.0909 11.765C39.8859 11.6416 38.76 11.1077 37.9019 10.2527C37.0438 9.39784 36.5057 8.27392 36.3777 7.06941C36.245 5.79137 36.0614 5 35.8585 5C35.6557 5 35.4703 5.79804 35.3384 7.08694C35.2115 8.28539 34.6798 9.40474 33.831 10.2602C32.9821 11.1158 31.867 11.6563 30.6695 11.7926C29.6286 11.9136 29 12.0697 29 12.2408C29 12.412 29.6428 12.5747 30.7063 12.6933C31.8935 12.8306 33.0001 13.3632 33.848 14.2055C34.6959 15.0478 35.2359 16.1508 35.381 17.3371C35.5079 18.3748 35.6732 19 35.8535 19C36.0338 19 36.1958 18.3864 36.3226 17.3672C36.4707 16.1703 37.0201 15.059 37.8811 14.2146C38.7421 13.3701 39.8638 12.8424 41.0633 12.7175C42.2654 12.5931 43 12.4245 43 12.24Z" fill="white"/>
    <path d="M16 36.1371C16 36.0322 15.5855 35.9368 14.9091 35.8657C14.2205 35.7952 13.5771 35.4901 13.0868 35.0016C12.5964 34.513 12.2889 33.8708 12.2158 33.1825C12.14 32.4522 12.0351 32 11.9191 32C11.8032 32 11.6973 32.456 11.622 33.1925C11.5494 33.8774 11.2456 34.517 10.7605 35.0059C10.2755 35.4947 9.63827 35.8036 8.95403 35.8815C8.35919 35.9506 8 36.0398 8 36.1376C8 36.2354 8.3673 36.3284 8.97502 36.3962C9.65345 36.4746 10.2858 36.779 10.7703 37.2603C11.2548 37.7416 11.5634 38.3719 11.6463 39.0498C11.7188 39.6427 11.8132 40 11.9163 40C12.0193 40 12.1119 39.6494 12.1844 39.067C12.269 38.383 12.5829 37.748 13.0749 37.2655C13.5669 36.7829 14.2079 36.4814 14.8933 36.41C15.5802 36.3389 16 36.2426 16 36.1371Z" fill="white"/>
    <defs>
    <clipPath id="clip0_1391_3864">
    <rect width="36" height="36" fill="white" transform="translate(6 6)"/>
    </clipPath>
    </defs>
    </svg>
    