
<svg width="65" height="65" viewBox="0 0 48 48" fill="none" xmlns="http://www.w3.org/2000/svg">
    <ellipse opacity="0.1" cx="24" cy="40" rx="11.25" ry="0.9375" fill="black"/>
    <path d="M35.2956 13.4805L36.6591 12.3117L29.6466 9H18.3485L11.3359 12.3117L12.6995 13.4805L23.9975 15.2338L35.2956 13.4805Z" fill="#67CB0F"/>
    <path d="M40.7511 18.5443L35.2969 13.4794L36.6604 12.3105L40.7511 18.5443Z" fill="#99FF0A"/>
    <path d="M35.299 13.4824L30.2344 23.4175L40.7532 18.5474L35.299 13.4824Z" fill="#87EB0C"/>
    <path d="M17.7656 23.4181H30.2324L23.999 15.2363L17.7656 23.4181Z" fill="#67CB0F"/>
    <path d="M12.6953 13.4824L17.76 23.4175L23.9934 15.2357L12.6953 13.4824Z" fill="#99FF0A"/>
    <path d="M7.24609 18.5474L17.765 23.4175L12.7003 13.4824L7.24609 18.5474Z" fill="#87EB0C"/>
    <path d="M11.3368 12.3105L12.7003 13.4794L7.24609 18.5443L11.3368 12.3105Z" fill="#67CB0F"/>
    <path d="M40.7506 18.5449L30.2318 23.4151L25.9023 36.6747L40.7506 18.5449Z" fill="#67CB0F"/>
    <path d="M17.7656 23.4141H30.2324L25.903 36.6737L23.999 38.9985L22.0951 36.6737L17.7656 23.4141Z" fill="#99FF0A"/>
    <path d="M7.24609 18.5449L17.765 23.4151L22.0944 36.6747L7.24609 18.5449Z" fill="#67CB0F"/>
    <path d="M35.2941 13.4824L30.2295 23.4175L23.9961 15.2357L35.2941 13.4824Z" fill="#3F9017"/>
    <g filter="url(#filter0_f_2251_3357)">
    <path d="M21.0751 23.0339C18.558 23.6425 18.1149 24.1355 17.5691 26.9388C17.0227 24.1355 16.5796 23.6425 14.0625 23.0339C16.5796 22.4259 17.0227 21.9329 17.5685 19.1289C18.1149 21.9329 18.5574 22.4259 21.0744 23.0339H21.0751Z" fill="white"/>
    </g>
    <path d="M21.0751 23.0339C18.558 23.6425 18.1149 24.1355 17.5691 26.9388C17.0227 24.1355 16.5796 23.6425 14.0625 23.0339C16.5796 22.4259 17.0227 21.9329 17.5685 19.1289C18.1149 21.9329 18.5574 22.4259 21.0744 23.0339H21.0751Z" fill="white"/>
    <path d="M23.7984 9H19.8507L15.0117 13.8393L18.4291 14.3696L23.7984 9Z" fill="white"/>
    <path d="M28.4217 9H29.6468L36.6594 12.3117L35.2958 13.4805L23.9978 15.2338L22.4313 14.9907L28.4217 9Z" fill="white"/>
    <path d="M23.999 15.2343L17.7656 23.4161L23.2199 14.4551L23.999 15.2343Z" fill="white"/>
    <path d="M13.8641 13.4824L17.76 23.4175L12.6953 13.4824H13.8641Z" fill="white"/>
    <path d="M12.7003 13.4809L7.24609 18.5458L12.1159 12.8965L12.7003 13.4809Z" fill="white"/>
    <path d="M35.2956 13.4804L36.6591 12.3115L35.6852 11.8516L34.5164 12.7011L23.9975 14.0648L13.4787 12.7011L12.3099 11.8516L11.3359 12.3115L12.6995 13.4804L23.9975 15.2336L35.2956 13.4804Z" fill="white"/>
    <path d="M23.6216 39.3086C23.7141 39.4215 23.8524 39.487 23.9984 39.487C24.1443 39.487 24.2826 39.4215 24.3751 39.3086L41.1274 18.854C41.2623 18.6894 41.2746 18.4562 41.1578 18.2783L37.0671 12.0445C37.0179 11.9695 36.949 11.9096 36.8679 11.8713L29.8553 8.55964C29.7903 8.52893 29.7193 8.513 29.6474 8.513H18.3493C18.2774 8.513 18.2064 8.52893 18.1414 8.55964L11.1288 11.8713C11.0477 11.9096 10.9788 11.9695 10.9296 12.0445L6.83893 18.2783C6.72216 18.4562 6.73447 18.6894 6.86933 18.854L23.6216 39.3086Z" stroke="#295A11" stroke-width="0.973998" stroke-linejoin="round"/>
    <defs>
    <filter id="filter0_f_2251_3357" x="9.38731" y="14.4537" width="16.3621" height="17.1609" filterUnits="userSpaceOnUse" color-interpolation-filters="sRGB">
    <feFlood flood-opacity="0" result="BackgroundImageFix"/>
    <feBlend mode="normal" in="SourceGraphic" in2="BackgroundImageFix" result="shape"/>
    <feGaussianBlur stdDeviation="2.33759" result="effect1_foregroundBlur_2251_3357"/>
    </filter>
    </defs>
    </svg>
    