
<svg width="65" height="65" viewBox="0 0 48 48" fill="none" xmlns="http://www.w3.org/2000/svg">
    <ellipse opacity="0.1" cx="22.25" cy="40.9375" rx="11.25" ry="0.9375" fill="black"/>
    <mask id="mask0_2251_3099" style="mask-type:luminance" maskUnits="userSpaceOnUse" x="4" y="4" width="40" height="40">
    <path d="M43.9995 4H4V44H43.9995V4Z" fill="white"/>
    </mask>
    <g mask="url(#mask0_2251_3099)">
    <path d="M36.6255 25.9274C36.5777 33.9526 30.0163 40.3611 21.9704 40.2411C13.9244 40.1212 7.44068 33.5183 7.48843 25.4931C7.5362 17.4679 14.0976 11.0594 22.1435 11.1793C30.1895 11.2993 36.6732 17.9022 36.6255 25.9274Z" fill="url(#paint0_radial_2251_3099)"/>
    <g opacity="0.4">
    <path d="M21.9843 40.2433C13.9381 40.1235 7.45401 33.5199 7.50218 25.4955C7.51737 22.8757 8.05598 18.8626 12.5145 14.6581C4.80512 24.2709 12.168 33.2286 19.945 33.1094C28.6585 32.9758 32.6582 24.7951 30.2794 18.2151C29.6745 16.5418 31.6678 15.9837 30.8132 14.2048L30.8973 14.2307C34.4101 16.9346 36.6668 21.1832 36.6389 25.9294C36.5909 33.955 30.0298 40.3637 21.9843 40.2433Z" fill="url(#paint1_linear_2251_3099)"/>
    </g>
    <g opacity="0.4">
    <path opacity="0.7" d="M30.2578 18.2207C30.2578 18.2207 31.5159 20.7364 30.4563 25.3206C30.0871 26.9184 33.3701 28.5509 33.8857 25.4777C34.4013 22.4044 33.3261 19.2176 33.3261 19.2176L30.2578 18.2207Z" fill="url(#paint2_linear_2251_3099)"/>
    </g>
    <g opacity="0.15">
    <path d="M36.6251 25.9271C36.6727 17.9022 30.1891 11.2991 22.143 11.1793C14.0969 11.0595 7.53594 17.4683 7.48844 25.4932C7.44026 33.5177 13.9245 40.1212 21.9705 40.241C30.0161 40.3615 36.5771 33.9528 36.6251 25.9271ZM21.9773 39.0602C14.5852 38.9497 8.6279 32.8835 8.67232 25.5107C8.71606 18.1373 14.7437 12.2503 22.1363 12.3602C22.8186 12.3704 23.9504 12.4839 24.6046 12.5918C24.6046 12.5918 25.3817 17.6759 31.3924 19.1227C32.1556 19.3064 33.3714 18.6762 33.3714 18.6762C34.6962 20.7739 35.457 23.2572 35.4413 25.9097C35.3968 33.2825 29.3686 39.1703 21.9773 39.0602Z" fill="url(#paint3_linear_2251_3099)"/>
    </g>
    <path d="M36.6255 25.9274C36.5777 33.9526 30.0163 40.3611 21.9704 40.2411C13.9244 40.1212 7.44068 33.5183 7.48843 25.4931C7.5362 17.4679 14.0976 11.0594 22.1435 11.1793C30.1895 11.2993 36.6732 17.9022 36.6255 25.9274Z" stroke="black" stroke-width="0.673947" stroke-miterlimit="10"/>
    <path d="M35.0213 18.8573C35.0213 18.8573 36.8183 16.874 37.8076 15.5709C38.7969 14.2678 37.4208 11.5604 34.5326 9.43247C31.6985 7.34429 29.6034 7.10861 28.6906 8.15847C28.1671 8.76052 25.8898 11.5581 25.8898 11.5581C25.8898 11.5581 24.9265 14.0527 28.7763 17.1702C32.8584 20.4758 35.0213 18.8573 35.0213 18.8573Z" fill="url(#paint4_linear_2251_3099)"/>
    <g opacity="0.15">
    <path d="M25.7877 13.1151L28.0243 10.5196C28.0243 10.5196 29.5116 13.8796 33.9144 14.9718C33.9144 14.9718 30.4986 13.1796 28.6551 9.70545C28.5191 9.44905 28.3407 8.58784 28.3407 8.58784L25.7943 11.6814L25.7877 13.1151Z" fill="white"/>
    </g>
    <path d="M37.8969 15.4846C36.9926 16.669 33.9799 15.2635 31.8172 13.5271C29.4278 11.6102 27.7324 9.03324 28.9578 7.79653C28.9585 7.79586 30.5447 6.6031 34.5245 9.42763C37.2673 11.3743 38.5954 14.5697 37.8969 15.4846Z" fill="url(#paint5_linear_2251_3099)"/>
    <g opacity="0.4">
    <path d="M33.3784 14.4702L30.502 18.256C30.502 18.256 32.1494 19.2979 33.2492 19.2212L35.9175 15.8836L33.3784 14.4702Z" fill="#5D3F16"/>
    </g>
    <path d="M25.8877 11.5575C25.8877 11.5575 28.1649 8.76004 28.6884 8.158C29.6012 7.10813 31.6962 7.34381 34.5304 9.43199C37.4186 11.5599 38.7946 14.2672 37.8054 15.5703C36.8161 16.8734 35.0192 18.8569 35.0192 18.8569" stroke="black" stroke-width="0.673947" stroke-miterlimit="10" stroke-linecap="round"/>
    <path d="M25.8893 11.5556C25.1389 12.541 26.5141 15.4681 28.9257 17.3022C31.2098 19.0393 34.1147 19.8337 35.0207 18.8549" stroke="#353D3F" stroke-width="0.673947" stroke-linecap="round" stroke-linejoin="round"/>
    <path d="M29.4766 17.6953C31.6538 19.1497 34.179 19.75 35.0126 18.8495" stroke="#2B2920" stroke-width="0.673947" stroke-linecap="round" stroke-linejoin="round"/>
    <path d="M34.6448 12.4565C34.4391 12.7272 33.7481 12.5483 33.1014 12.0569C32.4546 11.5654 32.0971 10.9476 32.3028 10.6769C32.5085 10.4061 33.1995 10.5851 33.8462 11.0765C34.493 11.5679 34.8505 12.1857 34.6448 12.4565Z" fill="#1D1E1E"/>
    <path d="M33.2184 12.4328C33.2184 12.4328 34.9336 10.1744 37.1488 10.7685C39.2357 11.3282 39.9193 13.6084 39.2703 16.5645C38.6329 19.4683 36.8168 22.0839 36.8168 22.0839" stroke="#FFBA5F" stroke-width="1.17941" stroke-linecap="round" stroke-linejoin="round"/>
    <path d="M33.0306 12.1682C33.0306 12.1682 34.9904 9.58862 37.5967 10.564C38.2705 10.8161 40.8628 12.0823 39.4864 17.1603C39.2091 18.1835 38.6792 19.6846 37.844 21.1142" stroke="#CBB18C" stroke-width="0.50546" stroke-linecap="round" stroke-linejoin="round"/>
    <g opacity="0.5">
    <path d="M39.2796 16.5678C38.6421 19.4717 36.8261 22.0874 36.8261 22.0874" stroke="#FFEA6C" stroke-width="1.17941" stroke-linecap="round" stroke-linejoin="round"/>
    </g>
    <path d="M38.0636 15.0544L34.6479 12.4592C34.4421 12.7302 33.7516 12.5516 33.1042 12.0598C32.4576 11.5684 32.1005 10.951 32.3063 10.68L28.8196 8.03082C28.7751 8.07114 28.7337 8.11476 28.6936 8.16049C27.9043 9.10334 29.439 11.6174 31.8283 13.5343C33.991 15.2706 36.8691 16.7422 37.8103 15.573C37.9276 15.4187 38.0113 15.2443 38.0636 15.0544Z" fill="url(#paint6_linear_2251_3099)"/>
    <g opacity="0.4">
    <path d="M36.9765 15.749C36.4842 15.7282 35.9838 15.5445 35.537 15.3312C35.1042 15.1245 34.7216 14.8899 34.4454 14.7484C34.1008 14.5719 33.9218 14.5404 34.0171 14.8886C34.0791 15.1156 36.4234 15.8766 37.1335 15.7549C37.8435 15.6332 38.41 14.7505 38.41 14.7505C38.41 14.7505 38.5406 15.8151 36.9765 15.749Z" fill="#666035"/>
    </g>
    <g opacity="0.3">
    <path d="M34.2318 12.5864L37.9177 15.4452L38.0641 14.6646L34.6566 12.0273L34.2318 12.5864Z" fill="#1D1E1E"/>
    </g>
    <path d="M29.2404 7.74761C28.9358 7.87164 28.692 8.16057 28.692 8.16057C27.9034 9.10326 29.4379 11.6174 31.8265 13.5343C33.9899 15.2706 36.8673 16.7425 37.809 15.573C37.809 15.573 38.0338 15.2769 38.081 14.9795" stroke="#353D3F" stroke-width="0.673947" stroke-linecap="round" stroke-linejoin="round"/>
    <path d="M32.2852 13.8926C34.3793 15.4646 36.9338 16.6653 37.8105 15.5764C37.8105 15.5764 38.0353 15.2803 38.0825 14.9829" stroke="#2B2920" stroke-width="0.673947" stroke-linecap="round" stroke-linejoin="round"/>
    <path d="M37.8153 13.2086C38.2216 14.1552 38.2436 14.9989 37.8088 15.5715C36.8195 16.8746 35.0227 18.858 35.0227 18.858L34.9069 18.9846L35.0818 19.316" stroke="black" stroke-width="0.673947" stroke-linecap="round" stroke-linejoin="round"/>
    <path d="M31.1616 7.68197C30.0278 7.39444 29.1749 7.5841 28.6758 8.1582C28.1523 8.76025 25.8751 11.5578 25.8751 11.5578L25.7708 11.6757L25.3953 11.6088" stroke="black" stroke-width="0.673947" stroke-linecap="round" stroke-linejoin="round"/>
    </g>
    <mask id="mask1_2251_3099" style="mask-type:luminance" maskUnits="userSpaceOnUse" x="28" y="14" width="16" height="17">
    <path d="M43.9996 14.7812H28.3477V30.4334H43.9996V14.7812Z" fill="white"/>
    </mask>
    <g mask="url(#mask1_2251_3099)">
    <path d="M37.6688 20.4012L33.6953 16.4746L35.2692 20.8597L37.3257 22.4081L37.6688 20.4012Z" fill="#CA0000"/>
    <path d="M34.8166 22.9926L29.9844 20.0469L35.2598 20.8527L37.3164 22.4011L34.8166 22.9926Z" fill="#CA0000"/>
    <path d="M37.3266 24.4345L30.2461 26.2267L34.82 22.9977L37.3198 22.4063L37.3266 24.4345Z" fill="#CA0000"/>
    <path d="M37.3232 24.4345L42.1405 28.7571L39.081 23.013L37.3164 22.4062L37.3232 24.4345Z" fill="#CA0000"/>
    <path d="M39.0809 23.0121L41.2061 17.0957L37.6595 20.3984L37.3164 22.4054L39.0809 23.0121Z" fill="#CA0000"/>
    <path d="M36.6817 20.7181L32.9453 19.1465L35.0004 21.9715L37.3168 22.4041L36.6817 20.7181Z" fill="#CA0000"/>
    <path d="M38.9457 21.619L37.5668 16.8027L36.6836 20.7172L37.3187 22.4032L38.9457 21.619Z" fill="#CA0000"/>
    <path d="M37.7704 23.9577L42.0887 22.6393L38.9473 21.6191L37.3203 22.4033L37.7704 23.9577Z" fill="#CA0000"/>
    <path d="M37.7724 23.9626L35.1443 28.602L35.0977 23.6569L37.3223 22.4082L37.7724 23.9626Z" fill="#CA0000"/>
    <path d="M35.0942 23.652L30.918 23.4934L35.0025 21.9707L37.3189 22.4033L35.0942 23.652Z" fill="#CA0000"/>
    <path d="M36.818 21.0353L33.7083 19.7388L35.366 22.0594L37.3155 22.4003L36.818 21.0353ZM38.7438 21.769L37.5942 17.8086L36.818 21.0353L37.3155 22.4003L38.7438 21.769ZM37.6128 23.7865L41.2891 22.6516L38.7438 21.769L37.3155 22.4003L37.6128 23.7865ZM37.6128 23.7865L35.4126 27.6464L35.3354 23.4808L37.3155 22.4003L37.6128 23.7865ZM35.3354 23.4808L32.1679 23.307L35.366 22.0594L37.3155 22.4003L35.3354 23.4808Z" fill="url(#paint7_linear_2251_3099)"/>
    <path d="M36.8167 21.0368L33.707 19.7402L35.3647 22.0608L37.3143 22.4017L36.8167 21.0368Z" fill="url(#paint8_linear_2251_3099)"/>
    <path d="M38.7461 21.769L37.5965 17.8086L36.8203 21.0353L37.3178 22.4003L38.7461 21.769Z" fill="url(#paint9_linear_2251_3099)"/>
    <path d="M37.6137 23.7852L41.29 22.6502L38.7447 21.7676L37.3164 22.3989L37.6137 23.7852Z" fill="url(#paint10_linear_2251_3099)"/>
    <path d="M37.6133 23.7945L35.4131 27.6543L35.3359 23.4888L37.3161 22.4082L37.6133 23.7945Z" fill="url(#paint11_linear_2251_3099)"/>
    <path d="M35.3354 23.4801L32.168 23.3062L35.366 22.0586L37.3155 22.3995L35.3354 23.4801Z" fill="url(#paint12_linear_2251_3099)"/>
    <path d="M37.6327 20.7338L34.3164 17.4492L35.5999 21.1618L37.3202 22.4045L37.6327 20.7338Z" fill="url(#paint13_linear_2251_3099)"/>
    <path d="M35.1954 23.0256L31.2344 20.5078L35.5928 21.1608L37.3131 22.4035L35.1954 23.0256Z" fill="url(#paint14_linear_2251_3099)"/>
    <path d="M37.4118 24.2033L31.5234 25.6593L35.1955 23.0263L37.3132 22.4043L37.4118 24.2033Z" fill="url(#paint15_linear_2251_3099)"/>
    <path d="M37.411 24.2013L41.2654 27.6527L38.8172 23.0549L37.3125 22.4023L37.411 24.2013Z" fill="url(#paint16_linear_2251_3099)"/>
    <path d="M38.8172 23.0562L40.6367 17.9805L37.625 20.733L37.3125 22.4036L38.8172 23.0562Z" fill="url(#paint17_linear_2251_3099)"/>
    <path d="M39.8265 25.7706L37.4899 23.611L36.18 25.6643L36.1446 23.9473L33.8434 24.4783L35.6666 23.133L34.3213 22.9737L35.4542 22.5311L33.6133 21.3097L35.5959 21.5753L35.1179 20.7787L36.0738 21.2389L35.5605 19.4688L37.2598 21.0088L37.6138 19.575L37.8971 21.115L39.4548 19.7874L38.6051 22.1063L39.915 22.7082L38.4635 23.0445L39.8265 25.7706Z" fill="url(#paint18_linear_2251_3099)"/>
    <path d="M38.6582 24.1728L37.4282 23.0595L36.7641 24.1374L36.7641 23.2346L35.6666 23.5709L36.4986 22.8982L35.7374 22.8274L36.4676 22.5309L35.5781 22.0309L36.5308 22.162L36.1446 21.5883L36.7597 21.9335L36.4809 21.0042L37.3173 21.814L37.5253 20.9688L37.689 21.814L38.4635 21.1281L37.9147 22.3849L38.7907 22.6107L37.9259 22.7413L38.6582 24.1728Z" fill="url(#paint19_linear_2251_3099)"/>
    </g>
    <defs>
    <radialGradient id="paint0_radial_2251_3099" cx="0" cy="0" r="1" gradientUnits="userSpaceOnUse" gradientTransform="translate(18.9558 23.9937) rotate(0.264003) scale(18.9584 18.9586)">
    <stop stop-color="#969295"/>
    <stop offset="0.28" stop-color="#6A717C"/>
    <stop offset="0.52" stop-color="#3E5063"/>
    <stop offset="0.77" stop-color="#383C39"/>
    <stop offset="1" stop-color="#322810"/>
    </radialGradient>
    <linearGradient id="paint1_linear_2251_3099" x1="21.9482" y1="39.5442" x2="22.0418" y2="19.2177" gradientUnits="userSpaceOnUse">
    <stop offset="0.09"/>
    <stop offset="0.45" stop-opacity="0.5"/>
    <stop offset="0.77" stop-opacity="0"/>
    </linearGradient>
    <linearGradient id="paint2_linear_2251_3099" x1="32.5163" y1="20.2827" x2="31.6487" y2="27.6506" gradientUnits="userSpaceOnUse">
    <stop stop-color="#FF6C00"/>
    <stop offset="0.64" stop-color="#FF6C00" stop-opacity="0.5"/>
    <stop offset="1" stop-color="#FF6C00" stop-opacity="0"/>
    </linearGradient>
    <linearGradient id="paint3_linear_2251_3099" x1="20.0155" y1="14.8847" x2="24.3291" y2="36.9266" gradientUnits="userSpaceOnUse">
    <stop stop-color="white"/>
    <stop offset="0.52" stop-color="white" stop-opacity="0.5"/>
    <stop offset="1" stop-color="white" stop-opacity="0"/>
    </linearGradient>
    <linearGradient id="paint4_linear_2251_3099" x1="27.5062" y1="9.79099" x2="35.9853" y2="16.0721" gradientUnits="userSpaceOnUse">
    <stop stop-color="#3E5063"/>
    <stop offset="0.13" stop-color="#4B5661"/>
    <stop offset="0.31" stop-color="#585D5F"/>
    <stop offset="0.47" stop-color="#454640"/>
    <stop offset="0.62" stop-color="#312E21"/>
    <stop offset="0.83" stop-color="#342A1A"/>
    <stop offset="1" stop-color="#362613"/>
    </linearGradient>
    <linearGradient id="paint5_linear_2251_3099" x1="28.0224" y1="8.2912" x2="37.7915" y2="16.1569" gradientUnits="userSpaceOnUse">
    <stop offset="0.39" stop-color="#3E5063"/>
    <stop offset="0.55" stop-color="#434953"/>
    <stop offset="0.67" stop-color="#474344"/>
    </linearGradient>
    <linearGradient id="paint6_linear_2251_3099" x1="28.3063" y1="8.34101" x2="38.1196" y2="15.7435" gradientUnits="userSpaceOnUse">
    <stop offset="0.39" stop-color="#3E5063"/>
    <stop offset="0.55" stop-color="#434953"/>
    <stop offset="0.67" stop-color="#474344"/>
    </linearGradient>
    <linearGradient id="paint7_linear_2251_3099" x1="37.4905" y1="18.1618" x2="36.216" y2="23.9075" gradientUnits="userSpaceOnUse">
    <stop stop-color="#FFA200"/>
    <stop offset="0.51" stop-color="#FF6C00"/>
    <stop offset="1" stop-color="#FF3700"/>
    </linearGradient>
    <linearGradient id="paint8_linear_2251_3099" x1="37.4893" y1="18.1632" x2="36.2148" y2="23.909" gradientUnits="userSpaceOnUse">
    <stop stop-color="#FFA200"/>
    <stop offset="0.51" stop-color="#FF6C00"/>
    <stop offset="1" stop-color="#FF3700"/>
    </linearGradient>
    <linearGradient id="paint9_linear_2251_3099" x1="37.4928" y1="18.1618" x2="36.2183" y2="23.9075" gradientUnits="userSpaceOnUse">
    <stop stop-color="#FFA200"/>
    <stop offset="0.51" stop-color="#FF6C00"/>
    <stop offset="1" stop-color="#FF3700"/>
    </linearGradient>
    <linearGradient id="paint10_linear_2251_3099" x1="37.4914" y1="18.1604" x2="36.2169" y2="23.9061" gradientUnits="userSpaceOnUse">
    <stop stop-color="#FFA200"/>
    <stop offset="0.51" stop-color="#FF6C00"/>
    <stop offset="1" stop-color="#FF3700"/>
    </linearGradient>
    <linearGradient id="paint11_linear_2251_3099" x1="37.4911" y1="18.1697" x2="36.2166" y2="23.9155" gradientUnits="userSpaceOnUse">
    <stop stop-color="#FFA200"/>
    <stop offset="0.51" stop-color="#FF6C00"/>
    <stop offset="1" stop-color="#FF3700"/>
    </linearGradient>
    <linearGradient id="paint12_linear_2251_3099" x1="37.4905" y1="18.161" x2="36.216" y2="23.9068" gradientUnits="userSpaceOnUse">
    <stop stop-color="#FFA200"/>
    <stop offset="0.51" stop-color="#FF6C00"/>
    <stop offset="1" stop-color="#FF3700"/>
    </linearGradient>
    <linearGradient id="paint13_linear_2251_3099" x1="37.4951" y1="18.166" x2="36.2206" y2="23.9118" gradientUnits="userSpaceOnUse">
    <stop stop-color="#FFA200"/>
    <stop offset="0.51" stop-color="#FF6C00"/>
    <stop offset="1" stop-color="#FF3700"/>
    </linearGradient>
    <linearGradient id="paint14_linear_2251_3099" x1="37.4881" y1="18.165" x2="36.2136" y2="23.9108" gradientUnits="userSpaceOnUse">
    <stop stop-color="#FFA200"/>
    <stop offset="0.51" stop-color="#FF6C00"/>
    <stop offset="1" stop-color="#FF3700"/>
    </linearGradient>
    <linearGradient id="paint15_linear_2251_3099" x1="37.4882" y1="18.1658" x2="36.2137" y2="23.9116" gradientUnits="userSpaceOnUse">
    <stop stop-color="#FFA200"/>
    <stop offset="0.51" stop-color="#FF6C00"/>
    <stop offset="1" stop-color="#FF3700"/>
    </linearGradient>
    <linearGradient id="paint16_linear_2251_3099" x1="37.4875" y1="18.1638" x2="36.213" y2="23.9096" gradientUnits="userSpaceOnUse">
    <stop stop-color="#FFA200"/>
    <stop offset="0.51" stop-color="#FF6C00"/>
    <stop offset="1" stop-color="#FF3700"/>
    </linearGradient>
    <linearGradient id="paint17_linear_2251_3099" x1="37.4875" y1="18.1651" x2="36.213" y2="23.9109" gradientUnits="userSpaceOnUse">
    <stop stop-color="#FFA200"/>
    <stop offset="0.51" stop-color="#FF6C00"/>
    <stop offset="1" stop-color="#FF3700"/>
    </linearGradient>
    <linearGradient id="paint18_linear_2251_3099" x1="37.6162" y1="19.5409" x2="36.2982" y2="25.3117" gradientUnits="userSpaceOnUse">
    <stop stop-color="#FEF37D"/>
    <stop offset="0.52" stop-color="#FEDA3F"/>
    <stop offset="1" stop-color="#FFC001"/>
    </linearGradient>
    <linearGradient id="paint19_linear_2251_3099" x1="37.3105" y1="21.1259" x2="36.7109" y2="23.5493" gradientUnits="userSpaceOnUse">
    <stop stop-color="#FFFFE1"/>
    <stop offset="0.52" stop-color="#FFFFE1"/>
    <stop offset="1" stop-color="#FFFFE1"/>
    </linearGradient>
    </defs>
    </svg>
    