
<svg width="65" height="65" viewBox="0 0 80 80" fill="none" xmlns="http://www.w3.org/2000/svg">
    <path d="M9.37705 26.9091C8.89504 25.2607 8.65403 24.4366 8.79072 23.7132C8.91095 23.0769 9.22954 22.4949 9.70083 22.0508C10.2366 21.5459 11.0608 21.3049 12.7092 20.8229L32.7231 14.9704C34.3714 14.4884 35.1956 14.2474 35.919 14.3841C36.5553 14.5043 37.1372 14.8229 37.5813 15.2942C38.0862 15.83 38.3272 16.6542 38.8093 18.3025L47.674 48.6177C48.1561 50.2661 48.3971 51.0902 48.2604 51.8136C48.1401 52.45 47.8215 53.0319 47.3503 53.476C46.8145 53.9809 45.9903 54.2219 44.3419 54.7039L24.328 60.5564C22.6797 61.0384 21.8555 61.2794 21.1321 61.1427C20.4958 61.0225 19.9139 60.7039 19.4697 60.2326C18.9649 59.6968 18.7238 58.8726 18.2418 57.2243L9.37705 26.9091Z" fill="white"/>
    <path d="M25.7325 41.7716C24.7237 43.6322 25.2551 45.9909 26.9846 47.2141C28.6557 48.3959 30.4508 49.3883 32.3372 50.1731L35.1471 51.3421C35.3281 51.4174 35.5119 51.4019 35.6941 51.352C35.8124 51.3195 36.0377 51.2099 36.1496 51.0489L37.887 48.5502C39.0534 46.8727 40.031 45.0695 40.8021 43.1736C41.6001 41.2113 40.777 38.9379 38.9247 37.9139C36.8833 36.7854 34.2982 37.5168 33.1865 39.5673L32.8153 40.252C32.6836 40.4948 32.3808 40.5834 32.1391 40.4497L31.4575 40.0729C29.4161 38.9444 26.8442 39.7211 25.7325 41.7716Z" fill="#FF2D55"/>
    <path d="M14.5686 35.0538C14.0642 35.9841 14.3299 37.1634 15.1947 37.775C16.0302 38.3659 16.9278 38.8621 17.871 39.2545L19.2759 39.839C19.3664 39.8767 19.4584 39.8689 19.5494 39.8439C19.6086 39.8277 19.7212 39.7729 19.7772 39.6924L20.6459 38.443C21.2291 37.6043 21.7179 36.7027 22.1034 35.7548C22.5025 34.7736 22.0909 33.6369 21.1647 33.1249C20.1441 32.5607 18.8515 32.9264 18.2956 33.9516L18.11 34.294C18.0442 34.4154 17.8928 34.4597 17.7719 34.3928L17.4311 34.2044C16.4105 33.6402 15.1245 34.0285 14.5686 35.0538Z" fill="#FF2D55"/>
    <path d="M16.3547 29.5013C15.9103 29.6313 15.4844 29.6744 15.0769 29.6306C14.7501 29.5911 14.4533 29.4969 14.1864 29.3479C14.0689 29.2823 14.0296 29.1361 14.084 29.013L14.4596 28.1637C14.5324 27.9991 14.738 27.9463 14.8969 28.0307C15.2305 28.208 15.5427 28.2541 15.8335 28.169C16.0817 28.0965 16.2473 27.9666 16.3304 27.7794C16.4192 27.5906 16.4215 27.3519 16.3371 27.0633L15.6543 24.7282C15.6106 24.5788 15.454 24.4931 15.3046 24.5368L13.7508 24.9912C13.6014 25.0349 13.4449 24.9492 13.4012 24.7998L13.1721 24.0163C13.1284 23.8669 13.2141 23.7104 13.3635 23.6667L16.614 22.7162C16.7634 22.6725 16.92 22.7582 16.9636 22.9076L18.0034 26.4633C18.2329 27.2481 18.2059 27.895 17.9225 28.4039C17.6448 28.9111 17.1222 29.2769 16.3547 29.5013Z" fill="#FF2D55"/>
    <path d="M37.6949 26.4856C38.1307 24.8245 38.3486 23.9939 38.8384 23.4442C39.2691 22.9607 39.8419 22.626 40.4747 22.488C41.1939 22.3312 42.0245 22.5491 43.6857 22.9849L63.8552 28.2763C65.5164 28.7121 66.347 28.93 66.8967 29.4197C67.3802 29.8505 67.7149 30.4233 67.8528 31.056C68.0097 31.7753 67.7918 32.6059 67.356 34.2671L59.3411 64.8179C58.9053 66.4791 58.6874 67.3097 58.1976 67.8594C57.7669 68.3429 57.1941 68.6776 56.5613 68.8155C55.8421 68.9724 55.0115 68.7545 53.3503 68.3187L33.1808 63.0273C31.5196 62.5915 30.689 62.3736 30.1393 61.8839C29.6558 61.4531 29.3211 60.8803 29.1832 60.2476C29.0263 59.5283 29.2442 58.6977 29.68 57.0365L37.6949 26.4856Z" fill="black" fill-opacity="0.16"/>
    <path d="M40.6949 24.4856C41.1307 22.8245 41.3486 21.9939 41.8384 21.4442C42.2691 20.9607 42.8419 20.626 43.4747 20.488C44.1939 20.3312 45.0245 20.5491 46.6857 20.9849L66.8552 26.2763C68.5164 26.7121 69.347 26.93 69.8967 27.4197C70.3802 27.8505 70.7149 28.4233 70.8528 29.056C71.0097 29.7753 70.7918 30.6059 70.356 32.2671L62.3411 62.8179C61.9053 64.4791 61.6874 65.3097 61.1976 65.8594C60.7669 66.3429 60.1941 66.6776 59.5613 66.8155C58.8421 66.9724 58.0115 66.7545 56.3503 66.3187L36.1808 61.0273C34.5196 60.5915 33.689 60.3736 33.1393 59.8839C32.6558 59.4531 32.3211 58.8803 32.1832 58.2476C32.0263 57.5283 32.2442 56.6977 32.68 55.0365L40.6949 24.4856Z" fill="white"/>
    <path d="M45.9441 49.4777C44.3008 50.7102 43.8495 53.0109 44.8778 54.7872C46.0109 56.7447 48.5249 57.4278 50.4731 56.2787L50.6406 56.1799L50.5075 56.6875C50.2002 57.8273 49.1368 58.564 48.0003 58.4984C47.7297 58.4828 47.4607 58.634 47.3919 58.8961C47.3232 59.1582 47.4799 59.4264 47.742 59.4952L52.9621 60.8647C53.2242 60.9334 53.4924 60.7767 53.5611 60.5146C53.6299 60.2525 53.4697 59.9887 53.2264 59.8695C52.2089 59.371 51.6446 58.2159 51.9269 57.0774L52.0646 56.5525L52.1627 56.722C53.2959 58.6795 55.8215 59.3184 57.7697 58.1693C59.5374 57.1266 60.2737 54.9006 59.447 53.0201C58.6483 51.2032 57.6518 49.4819 56.4759 47.8875L54.7241 45.5124C54.6113 45.3594 54.3935 45.2602 54.2744 45.231C54.1562 45.1979 53.9178 45.1775 53.7444 45.2554L51.0523 46.4646C49.2451 47.2764 47.5319 48.2869 45.9441 49.4777Z" fill="#2D2D2D"/>
    <path d="M40.3931 36.0547C39.5711 36.6711 39.3454 37.8219 39.8597 38.7103C40.4265 39.6893 41.6839 40.031 42.6583 39.4563L42.7421 39.4069L42.6755 39.6608C42.5218 40.2308 41.99 40.5993 41.4215 40.5665C41.2862 40.5587 41.1516 40.6343 41.1172 40.7654C41.0828 40.8965 41.1612 41.0307 41.2923 41.0651L43.9032 41.75C44.0343 41.7844 44.1685 41.706 44.2029 41.5749C44.2372 41.4438 44.1571 41.3119 44.0354 41.2523C43.5265 41.003 43.2443 40.4252 43.3855 39.8558L43.4543 39.5932L43.5034 39.678C44.0702 40.6571 45.3334 40.9767 46.3078 40.4019C47.192 39.8804 47.5603 38.767 47.1468 37.8265C46.7473 36.9177 46.2489 36.0567 45.6607 35.2593L44.7845 34.0713C44.7281 33.9948 44.6192 33.9452 44.5596 33.9306C44.5005 33.914 44.3813 33.9038 44.2945 33.9428L42.948 34.5476C42.0441 34.9536 41.1873 35.4591 40.3931 36.0547Z" fill="#2D2D2D"/>
    <path d="M47.1155 29.4736L44.4816 28.7826L43.7906 29.709C43.7206 29.8029 43.6005 29.8449 43.4872 29.8152L42.304 29.5047C42.103 29.452 42.0226 29.2102 42.152 29.0476L46.0276 24.1785C46.1694 24.0003 46.4031 23.9226 46.6233 23.9804L47.6341 24.2456C47.8542 24.3033 48.0195 24.4853 48.0558 24.7099L49.0499 30.857C49.0831 31.0622 48.8943 31.2337 48.6932 31.1809L47.4749 30.8613C47.3616 30.8316 47.2776 30.7361 47.2627 30.6199L47.1155 29.4736ZM46.9402 28.039L46.7518 26.5456C46.7194 26.2885 46.3902 26.2022 46.2358 26.4102L45.3385 27.6188L46.9402 28.039Z" fill="#2D2D2D"/>
</svg>
    